<svg width="139" height="25" viewBox="0 0 139 25" fill="none" xmlns="http://www.w3.org/2000/svg">
<g filter="url(#filter0_d)">
<path d="M32.1897 6.1665H20.5368L20.1193 6.49518V16.6651H23.3251V12.8369L23.619 12.5514H32.1897C34.3571 12.5514 35.3543 11.9775 35.3543 10.5066V8.16817C35.3543 6.73764 34.3571 6.1665 32.1897 6.1665ZM32.1897 9.92468C32.1897 10.6197 31.731 10.7329 30.6898 10.7329H23.6739L23.3388 10.4473V8.29209L23.6327 8.00653H30.7118C31.7117 8.00653 32.2117 8.12776 32.2117 8.81474V9.9166L32.1897 9.92468Z" fill="white"/>
<path d="M22.8251 12.8369V16.1651H20.6193V6.73792L20.71 6.6665H32.1897C33.2514 6.6665 33.9247 6.81062 34.3219 7.05618C34.6667 7.26937 34.8543 7.59052 34.8543 8.16817V10.5066C34.8543 11.1101 34.6625 11.441 34.3185 11.6574C33.9227 11.9064 33.2516 12.0514 32.1897 12.0514H23.619H23.4161L23.2706 12.1927L22.9766 12.4783L22.8251 12.6256V12.8369ZM32.5404 10.5842C32.5924 10.4892 32.6282 10.3895 32.6516 10.2876L32.7117 10.2655V9.9166V8.81474C32.7117 8.58459 32.67 8.35429 32.5507 8.14816C32.428 7.93618 32.2483 7.79291 32.0475 7.69959C31.6836 7.53048 31.2008 7.50653 30.7118 7.50653H23.6327H23.4298L23.2843 7.64791L22.9904 7.93348L22.8388 8.08075V8.29209V10.4473V10.6782L23.0145 10.8279L23.3496 11.1135L23.4898 11.2329H23.6739H30.6898C31.1936 11.2329 31.6814 11.212 32.043 11.0419C32.246 10.9464 32.4227 10.7993 32.5404 10.5842Z" stroke="black"/>
</g>
<path d="M41.2769 8.08749L44.0679 12.0908L43.9003 12.4599H37.736L36.1537 14.378H45.3178L45.9826 14.7471L47.4 16.6653H51.1058L42.9856 6.04541" fill="white"/>
<path d="M78.0543 14.6232V11.7649L78.3894 11.4793H84.595V9.68237H74.7661V16.6653H89.2595V14.8684H78.4307" fill="white"/>
<path d="M89.3858 6.16943H74.7661V8.13069H89.3858V6.16943Z" fill="white"/>
<path d="M58.4816 8.04695H70.2691C70.1015 6.57601 69.1428 6.16113 66.8106 6.16113H58.3552C55.6906 6.16113 54.8555 6.65145 54.8555 8.65311V14.2136C54.8555 16.1748 55.6796 16.7056 58.3552 16.7056H66.8023C69.1758 16.7056 70.0988 16.2557 70.1757 14.7443H58.4733L58.1382 14.4183V8.29211" fill="white"/>
<path d="M12.2051 10.2508H3.66729L3.41731 9.96522V8.1683L3.66729 7.96355H15.2048L15.3697 7.59716C14.9961 6.61653 13.9549 6.12622 12.0732 6.12622H4.04089C1.37626 6.12622 0.543913 6.61653 0.543913 8.6182V9.80357C0.543913 11.7621 1.36802 12.2956 4.04089 12.2956H12.5814L12.8314 12.5407V14.4265L12.6226 14.7121H0.293932C0.293932 14.7121 0 14.8764 0 14.9168C0.208775 16.307 1.16749 16.6734 3.45852 16.6734H12.2051C14.8697 16.6734 15.746 16.183 15.746 14.1814V12.7428C15.746 10.7842 14.8697 10.2508 12.2051 10.2508Z" fill="white"/>
<path d="M98.591 6.12622H93.759L93.509 6.61653L98.841 10.4555C99.8409 9.88439 100.964 9.31326 102.137 8.73943" fill="white"/>
<path d="M102.923 13.3165L107.629 16.6652H112.461L112.67 16.2153L105.673 11.1909C104.755 11.886 103.797 12.581 102.926 13.3165" fill="white"/>
<path d="M97.8824 16.6653H93.5091L93.1355 16.0941C96.0913 13.2735 109.343 1.27697 138.118 0C138.118 0 114.002 0.808209 97.8824 16.6653Z" fill="#B2B0B2"/>
<defs>
<filter id="filter0_d" x="16.1193" y="6.1665" width="23.2351" height="18.4986" filterUnits="userSpaceOnUse" color-interpolation-filters="sRGB">
<feFlood flood-opacity="0" result="BackgroundImageFix"/>
<feColorMatrix in="SourceAlpha" type="matrix" values="0 0 0 0 0 0 0 0 0 0 0 0 0 0 0 0 0 0 127 0"/>
<feOffset dy="4"/>
<feGaussianBlur stdDeviation="2"/>
<feColorMatrix type="matrix" values="0 0 0 0 0 0 0 0 0 0 0 0 0 0 0 0 0 0 0.25 0"/>
<feBlend mode="normal" in2="BackgroundImageFix" result="effect1_dropShadow"/>
<feBlend mode="normal" in="SourceGraphic" in2="effect1_dropShadow" result="shape"/>
</filter>
</defs>
</svg>
